TITLE ""
FILE "P1Q_j_1707-1720.mp3" MP3
  TRACK 01 AUDIO
    TITLE "P1Q_j_1707-1720_01"
    INDEX 01 00:00:00
  TRACK 02 AUDIO
    TITLE "P1Q_j_1707-1720_02"
    INDEX 01 00:01:43
  TRACK 03 AUDIO
    TITLE "P1Q_j_1707-1720_03"
    INDEX 01 00:01:65
  TRACK 04 AUDIO
    TITLE "P1Q_j_1707-1720_04"
    INDEX 01 00:07:12
  TRACK 05 AUDIO
    TITLE "P1Q_j_1707-1720_05"
    INDEX 01 00:07:32
  TRACK 06 AUDIO
    TITLE "P1Q_j_1707-1720_06"
    INDEX 01 00:11:39
  TRACK 07 AUDIO
    TITLE "P1Q_j_1707-1720_07"
    INDEX 01 00:12:10
  TRACK 08 AUDIO
    TITLE "P1Q_j_1707-1720_08"
    INDEX 01 00:13:34
  TRACK 09 AUDIO
    TITLE "P1Q_j_1707-1720_09"
    INDEX 01 00:13:56
  TRACK 10 AUDIO
    TITLE "P1Q_j_1707-1720_10"
    INDEX 01 00:15:12
  TRACK 11 AUDIO
    TITLE "P1Q_j_1707-1720_11"
    INDEX 01 00:15:29
  TRACK 12 AUDIO
    TITLE "P1Q_j_1707-1720_12"
    INDEX 01 00:18:55
  TRACK 13 AUDIO
    TITLE "P1Q_j_1707-1720_13"
    INDEX 01 00:19:25
  TRACK 14 AUDIO
    TITLE "P1Q_j_1707-1720_14"
    INDEX 01 00:20:66
  TRACK 15 AUDIO
    TITLE "P1Q_j_1707-1720_15"
    INDEX 01 00:21:10
  TRACK 16 AUDIO
    TITLE "P1Q_j_1707-1720_16"
    INDEX 01 00:28:46
  TRACK 17 AUDIO
    TITLE "P1Q_j_1707-1720_17"
    INDEX 01 00:28:65
  TRACK 18 AUDIO
    TITLE "P1Q_j_1707-1720_18"
    INDEX 01 00:35:03
  TRACK 19 AUDIO
    TITLE "P1Q_j_1707-1720_19"
    INDEX 01 00:35:50
  TRACK 20 AUDIO
    TITLE "P1Q_j_1707-1720_20"
    INDEX 01 00:37:60
  TRACK 21 AUDIO
    TITLE "P1Q_j_1707-1720_21"
    INDEX 01 00:38:05
  TRACK 22 AUDIO
    TITLE "P1Q_j_1707-1720_22"
    INDEX 01 00:40:45
  TRACK 23 AUDIO
    TITLE "P1Q_j_1707-1720_23"
    INDEX 01 00:40:63
  TRACK 24 AUDIO
    TITLE "P1Q_j_1707-1720_24"
    INDEX 01 00:44:55
  TRACK 25 AUDIO
    TITLE "P1Q_j_1707-1720_25"
    INDEX 01 00:45:25
  TRACK 26 AUDIO
    TITLE "P1Q_j_1707-1720_26"
    INDEX 01 00:46:73
  TRACK 27 AUDIO
    TITLE "P1Q_j_1707-1720_27"
    INDEX 01 00:47:18
  TRACK 28 AUDIO
    TITLE "P1Q_j_1707-1720_28"
    INDEX 01 00:50:55
  TRACK 29 AUDIO
    TITLE "P1Q_j_1707-1720_29"
    INDEX 01 00:51:00
  TRACK 30 AUDIO
    TITLE "P1Q_j_1707-1720_30"
    INDEX 01 00:55:31
  TRACK 31 AUDIO
    TITLE "P1Q_j_1707-1720_31"
    INDEX 01 00:56:01
  TRACK 32 AUDIO
    TITLE "P1Q_j_1707-1720_32"
    INDEX 01 00:57:26
  TRACK 33 AUDIO
    TITLE "P1Q_j_1707-1720_33"
    INDEX 01 00:57:47
  TRACK 34 AUDIO
    TITLE "P1Q_j_1707-1720_34"
    INDEX 01 01:00:52
  TRACK 35 AUDIO
    TITLE "P1Q_j_1707-1720_35"
    INDEX 01 01:00:71
  TRACK 36 AUDIO
    TITLE "P1Q_j_1707-1720_36"
    INDEX 01 01:05:04
  TRACK 37 AUDIO
    TITLE "P1Q_j_1707-1720_37"
    INDEX 01 01:05:51
  TRACK 38 AUDIO
    TITLE "P1Q_j_1707-1720_38"
    INDEX 01 01:07:32
  TRACK 39 AUDIO
    TITLE "P1Q_j_1707-1720_39"
    INDEX 01 01:07:52
  TRACK 40 AUDIO
    TITLE "P1Q_j_1707-1720_40"
    INDEX 01 01:10:07
  TRACK 41 AUDIO
    TITLE "P1Q_j_1707-1720_41"
    INDEX 01 01:10:27
  TRACK 42 AUDIO
    TITLE "P1Q_j_1707-1720_42"
    INDEX 01 01:13:37
  TRACK 43 AUDIO
    TITLE "P1Q_j_1707-1720_43"
    INDEX 01 01:14:07
  TRACK 44 AUDIO
    TITLE "P1Q_j_1707-1720_44"
    INDEX 01 01:15:49
  TRACK 45 AUDIO
    TITLE "P1Q_j_1707-1720_45"
    INDEX 01 01:15:71
  TRACK 46 AUDIO
    TITLE "P1Q_j_1707-1720_46"
    INDEX 01 01:19:69
  TRACK 47 AUDIO
    TITLE "P1Q_j_1707-1720_47"
    INDEX 01 01:20:13
  TRACK 48 AUDIO
    TITLE "P1Q_j_1707-1720_48"
    INDEX 01 01:26:14
  TRACK 49 AUDIO
    TITLE "P1Q_j_1707-1720_49"
    INDEX 01 01:26:59
  TRACK 50 AUDIO
    TITLE "P1Q_j_1707-1720_50"
    INDEX 01 01:28:26
  TRACK 51 AUDIO
    TITLE "P1Q_j_1707-1720_51"
    INDEX 01 01:28:48
  TRACK 52 AUDIO
    TITLE "P1Q_j_1707-1720_52"
    INDEX 01 01:34:11
  TRACK 53 AUDIO
    TITLE "P1Q_j_1707-1720_53"
    INDEX 01 01:34:31
  TRACK 54 AUDIO
    TITLE "P1Q_j_1707-1720_54"
    INDEX 01 01:38:43
  TRACK 55 AUDIO
    TITLE "P1Q_j_1707-1720_55"
    INDEX 01 01:39:13
  TRACK 56 AUDIO
    TITLE "P1Q_j_1707-1720_56"
    INDEX 01 01:40:59
  TRACK 57 AUDIO
    TITLE "P1Q_j_1707-1720_57"
    INDEX 01 01:41:06
  TRACK 58 AUDIO
    TITLE "P1Q_j_1707-1720_58"
    INDEX 01 01:45:19
  TRACK 59 AUDIO
    TITLE "P1Q_j_1707-1720_59"
    INDEX 01 01:45:39
  TRACK 60 AUDIO
    TITLE "P1Q_j_1707-1720_60"
    INDEX 01 01:50:42
  TRACK 61 AUDIO
    TITLE "P1Q_j_1707-1720_61"
    INDEX 01 01:51:12
  TRACK 62 AUDIO
    TITLE "P1Q_j_1707-1720_62"
    INDEX 01 01:52:43
  TRACK 63 AUDIO
    TITLE "P1Q_j_1707-1720_63"
    INDEX 01 01:52:62
  TRACK 64 AUDIO
    TITLE "P1Q_j_1707-1720_64"
    INDEX 01 01:59:62
  TRACK 65 AUDIO
    TITLE "P1Q_j_1707-1720_65"
    INDEX 01 02:00:05
  TRACK 66 AUDIO
    TITLE "P1Q_j_1707-1720_66"
    INDEX 01 02:06:23
  TRACK 67 AUDIO
    TITLE "P1Q_j_1707-1720_67"
    INDEX 01 02:06:68
  TRACK 68 AUDIO
    TITLE "P1Q_j_1707-1720_68"
    INDEX 01 02:08:44
  TRACK 69 AUDIO
    TITLE "P1Q_j_1707-1720_69"
    INDEX 01 02:08:61
  TRACK 70 AUDIO
    TITLE "P1Q_j_1707-1720_70"
    INDEX 01 02:12:69
  TRACK 71 AUDIO
    TITLE "P1Q_j_1707-1720_71"
    INDEX 01 02:13:13
  TRACK 72 AUDIO
    TITLE "P1Q_j_1707-1720_72"
    INDEX 01 02:18:50
  TRACK 73 AUDIO
    TITLE "P1Q_j_1707-1720_73"
    INDEX 01 02:19:20
  TRACK 74 AUDIO
    TITLE "P1Q_j_1707-1720_74"
    INDEX 01 02:20:53
  TRACK 75 AUDIO
    TITLE "P1Q_j_1707-1720_75"
    INDEX 01 02:20:74
  TRACK 76 AUDIO
    TITLE "P1Q_j_1707-1720_76"
    INDEX 01 02:24:43
  TRACK 77 AUDIO
    TITLE "P1Q_j_1707-1720_77"
    INDEX 01 02:24:62
  TRACK 78 AUDIO
    TITLE "P1Q_j_1707-1720_78"
    INDEX 01 02:28:54
  TRACK 79 AUDIO
    TITLE "P1Q_j_1707-1720_79"
    INDEX 01 02:29:24
  TRACK 80 AUDIO
    TITLE "P1Q_j_1707-1720_80"
    INDEX 01 02:31:64
  TRACK 81 AUDIO
    TITLE "P1Q_j_1707-1720_81"
    INDEX 01 02:32:09
  TRACK 82 AUDIO
    TITLE "P1Q_j_1707-1720_82"
    INDEX 01 02:36:34
  TRACK 83 AUDIO
    TITLE "P1Q_j_1707-1720_83"
    INDEX 01 02:36:54
  TRACK 84 AUDIO
    TITLE "P1Q_j_1707-1720_84"
    INDEX 01 02:42:43
